<?xml version="1.0" encoding="UTF-8" standalone="no"?>
<!-- Created with Inkscape (http://www.inkscape.org/) -->

<svg
   width="140.4106mm"
   height="151.04411mm"
   viewBox="0 0 140.4106 151.04411"
   version="1.1"
   id="svg24217"
   inkscape:version="1.1.1 (3bf5ae0d25, 2021-09-20)"
   sodipodi:docname="RecipesHavenLogoWhiteBg.svg"
   xmlns:inkscape="http://www.inkscape.org/namespaces/inkscape"
   xmlns:sodipodi="http://sodipodi.sourceforge.net/DTD/sodipodi-0.dtd"
   xmlns="http://www.w3.org/2000/svg"
   xmlns:svg="http://www.w3.org/2000/svg">
  <sodipodi:namedview
     id="namedview24219"
     pagecolor="#ffffff"
     bordercolor="#666666"
     borderopacity="1.0"
     inkscape:pageshadow="2"
     inkscape:pageopacity="0.0"
     inkscape:pagecheckerboard="0"
     inkscape:document-units="mm"
     showgrid="false"
     fit-margin-top="0"
     fit-margin-left="0"
     fit-margin-right="0"
     fit-margin-bottom="0"
     inkscape:zoom="0.64052329"
     inkscape:cx="530.03537"
     inkscape:cy="540.18333"
     inkscape:window-width="1920"
     inkscape:window-height="1005"
     inkscape:window-x="-9"
     inkscape:window-y="-9"
     inkscape:window-maximized="1"
     inkscape:current-layer="layer1" />
  <defs
     id="defs24214">
    <rect
       x="4395.6045"
       y="-2836.6299"
       width="2004.3956"
       height="679.85345"
       id="rect107254" />
    <rect
       x="4395.6045"
       y="-2836.6299"
       width="2004.3956"
       height="679.85345"
       id="rect107254-9" />
  </defs>
  <g
     inkscape:label="Capa 1"
     inkscape:groupmode="layer"
     id="layer1"
     transform="translate(157.22996,283.74763)">
    <g
       id="g14647"
       transform="matrix(4.0213502,0,0,4.0213502,-165.35567,-178.88921)"
       style="fill:#7fc37e;fill-opacity:1">
      <path
         fill-rule="evenodd"
         clip-rule="evenodd"
         d="m 6.5946349,-21.823361 c 0.3752498,-1.928939 1.8230993,-3.567981 3.8551591,-4.0873 2.032089,-0.519331 4.088805,0.224077 5.34345,1.736476 0.08038,-0.0243 0.161605,-0.04696 0.243647,-0.06801 3.076717,-0.786294 6.208377,1.070469 6.99468,4.147223 0.539932,2.112697 -0.166619,4.249789 -1.65598,5.636338 l 0.743107,2.907747 c 0.222487,0.870519 0.408064,1.5963708 0.477842,2.192455 0.07369,0.6291461 0.0341,1.2242794 -0.294458,1.7782832 -0.32842,0.5541089 -0.831589,0.8743687 -1.418942,1.1115871 -0.55647,0.2247846 -1.282366,0.410193 -2.152888,0.632666 l -5.913913,1.511405 C 11.945828,-4.1020191 11.219963,-3.9164116 10.623895,-3.84665 9.994756,-3.772978 9.3996252,-3.8125529 8.8455538,-4.1410925 8.2915075,-4.4695352 7.9712765,-4.972713 7.7340486,-5.5600637 7.5092933,-6.1165411 7.3238167,-6.8424193 7.1013727,-7.7129484 l -0.743112,-2.9077456 c -1.9719828,-0.501958 -3.6172591,-2.03801 -4.1571865,-4.150709 -0.7863043,-3.076753 1.0704682,-6.208376 4.147222,-6.994681 0.082047,-0.02099 0.1641827,-0.04006 0.2463223,-0.05734 z m -0.065043,1.563831 c -2.1598109,0.658402 -3.4400183,2.906728 -2.8752189,5.116749 0.4312289,1.687368 1.8173557,2.87989 3.4357092,3.143899 0.2942032,0.04795 0.5320841,0.265728 0.6058951,0.554545 l 0.660115,2.5829837 12.1107637,-3.0950627 -0.660115,-2.582983 c -0.07376,-0.288829 0.03036,-0.594016 0.265517,-0.777246 1.293259,-1.008109 1.937274,-2.71946 1.506046,-4.406829 -0.564803,-2.210019 -2.76672,-3.568454 -4.977615,-3.109855 0.09398,0.227566 0.172952,0.464315 0.235557,0.70926 l 0.123825,0.484426 c 0.102506,0.401325 -0.139638,0.809791 -0.540942,0.912349 -0.401301,0.102562 -0.809789,-0.13963 -0.912349,-0.540942 l -0.123826,-0.484425 c -0.10474,-0.409673 -0.272525,-0.784841 -0.489845,-1.118686 -0.853225,-1.310381 -2.474831,-1.994178 -4.071902,-1.586024 -1.5970707,0.408153 -2.6917542,1.78613 -2.8116336,3.3452 -0.030531,0.397189 0.00222,0.806864 0.1069227,1.216547 l 0.1238081,0.48443 c 0.1025641,0.401311 -0.13963,0.809789 -0.5409419,0.912349 -0.4013112,0.102564 -0.8097892,-0.13963 -0.9123496,-0.540942 l -0.1238091,-0.484429 c -0.062598,-0.244958 -0.106872,-0.490564 -0.1336082,-0.735315 z M 20.83652,-10.502679 8.7292537,-7.4085099 c 0.1450875,0.5506213 0.2650826,0.9634654 0.3956436,1.2867031 0.1743779,0.431768 0.3271613,0.5965698 0.4856861,0.6905445 0.1585153,0.093977 0.3764085,0.1489373 0.8388756,0.094844 0.484068,-0.056724 1.11186,-0.2155126 2.045852,-0.4542067 l 5.813167,-1.4856302 c 0.93398,-0.2386945 1.56102,-0.40059 2.01291,-0.5830627 0.431753,-0.1744362 0.59656,-0.3271999 0.69054,-0.4857053 0.09398,-0.1585058 0.148939,-0.3763988 0.09483,-0.8389047 -0.0406,-0.3462299 -0.133329,-0.7660408 -0.27025,-1.3187491 z"
         fill="#1c274c"
         id="path9559"
         style="fill:#7fc37e;fill-opacity:1" />
      <path
         style="fill:#7fc37e;fill-opacity:1;stroke-width:1.39331"
         d="m 277.99047,-297.82084 c -0.32168,-0.9579 -5.37361,-20.53344 -11.22653,-43.50122 -5.85292,-22.96776 -11.47051,-43.34498 -12.48352,-45.2827 -4.19095,-8.01658 -9.13491,-10.87338 -26.4736,-15.29733 -27.00955,-6.89147 -47.21483,-17.77155 -65.88449,-35.47726 -13.62762,-12.924 -21.63676,-23.82931 -29.76433,-40.5273 -10.43401,-21.43657 -14.04001,-37.32407 -14.07273,-62.00247 -0.0231,-17.42609 0.47783,-22.11819 3.6444,-34.13619 10.26967,-38.9762 35.45404,-71.55553 69.39953,-89.77752 5.61256,-3.01283 13.59719,-6.80444 17.74363,-8.4258 8.22256,-3.21521 9.81441,-2.56002 9.85611,4.05674 0.043,6.8193 7.37708,34.40277 10.67752,40.15802 8.24778,14.38233 29.14838,16.01233 39.99716,3.1193 6.6174,-7.86434 7.20196,-13.79892 3.04543,-30.91758 -5.06549,-20.86216 -6.39296,-34.41169 -4.90853,-50.10169 5.1662,-54.60544 45.36461,-99.35846 99.19061,-110.4292 16.59781,-3.41378 38.36711,-2.91543 54.806,1.25464 16.48155,4.18089 27.93155,9.37459 41.79391,18.95763 25.20739,17.42585 41.56113,42.0041 50.80602,76.35703 4.80275,17.84645 7.59023,22.67554 15.38404,26.65164 16.17008,8.24936 36.16432,-3.33767 36.16432,-20.95789 0,-6.51458 -5.67807,-30.04079 -9.73366,-40.32989 l -2.70423,-6.86068 6.56728,-1.12272 c 3.612,-0.61749 14.71816,-1.04112 24.68035,-0.9414 14.66158,0.14677 20.76808,0.87714 32.04622,3.83292 53.58289,14.04301 92.83542,55.34601 104.1027,109.54085 2.24838,10.81452 2.62804,16.80568 2.07499,32.74287 -0.79867,23.01494 -3.7024,35.35777 -12.89884,54.82902 -8.3328,17.64266 -16.66676,28.95995 -33.49824,45.48958 -20.70126,20.33002 -20.28966,15.72854 -6.32608,70.72221 6.27356,24.70757 11.3903,45.56839 11.37051,46.3574 -0.0198,0.789 -8.97057,3.73762 -19.89067,6.55247 -87.08745,22.44843 -380.56021,97.20817 -381.59513,97.20817 -0.71791,0 -1.56849,-0.78374 -1.89015,-1.74165 z"
         id="path14161"
         transform="scale(0.03)" />
      <path
         style="fill:#7fc37e;fill-opacity:1;stroke-width:1.39331"
         d="m 322.2898,-180.35814 c -7.31834,-3.32258 -13.04972,-11.10723 -18.37316,-24.95541 -4.34941,-11.31434 -13.17636,-40.61465 -12.44978,-41.32596 0.39005,-0.38185 37.43863,-9.95012 132.10055,-34.11666 18.00858,-4.59747 46.22319,-11.80507 62.69913,-16.01688 211.23747,-53.99954 207.31012,-53.01377 208.07283,-52.22651 2.02343,2.08857 8.35863,36.20151 8.94224,48.15086 0.58644,12.00774 0.27988,14.95766 -2.11765,20.37768 -4.5144,10.20556 -15.2308,16.37031 -43.51982,25.03535 -20.60792,6.31228 -267.24413,69.22106 -289.11263,73.74311 -23.27171,4.81222 -37.66657,5.22762 -46.24171,1.33442 z"
         id="path14200"
         transform="scale(0.03)" />
    </g>
    <path
       id="path9583"
       style="fill:#7fc37e;fill-opacity:1;stroke-width:3.43825"
       d="m -73.535661,-274.32386 c -6.0653,0.16422 -11.33504,4.65535 -12.9728,10.40781 -3.0482,10.37065 -3.8835,21.25876 -5.81482,31.87641 -0.86628,7.18844 -3.09497,14.88105 -0.28351,21.89971 2.80104,6.49624 10.27398,8.44126 16.59693,9.55862 10.52945,1.65198 21.02273,3.87336 31.67371,4.51557 5.93429,0.43863 12.22821,-2.52235 14.59198,-8.19454 3.49799,-8.39876 3.85538,-17.69868 5.55758,-26.56205 1.06619,-8.50047 3.48771,-17.02176 2.60125,-25.63529 -0.66202,-6.13341 -5.90261,-10.66859 -11.67183,-12.03403 -10.42107,-2.58009 -21.13601,-3.80494 -31.73054,-5.44376 -2.83168,-0.33684 -5.69602,-0.61581 -8.54796,-0.38845 z m 1.58926,5.53654 c 10.01216,0.37653 19.85072,2.62517 29.75313,4.07617 4.87928,1.12256 11.0069,1.36781 14.01435,5.99161 2.50968,5.2879 0.5759,11.39394 0.0447,16.95392 -1.91108,10.83566 -2.97699,21.90646 -5.69221,32.54697 -0.8966,3.99924 -4.11155,7.47678 -8.42673,7.48332 -9.50787,0.0739 -18.8247,-2.31811 -28.21969,-3.56513 -5.3701,-1.18245 -11.5896,-1.26275 -15.78433,-5.23863 -3.59946,-4.59574 -1.67063,-10.84788 -1.21279,-16.14424 1.93128,-11.39413 3.1766,-22.98821 5.86969,-34.20204 0.84086,-3.83845 3.75566,-7.60968 7.90083,-7.76877 0.58065,-0.0906 1.16749,-0.0994 1.753,-0.13318 z m 2.71283,15.02035 c -2.94917,-0.0163 -3.63574,4.57531 -0.8205,5.43306 6.01124,1.02591 12.06014,2.01654 18.09539,2.85327 2.9486,0.0163 3.63732,-4.57597 0.8205,-5.43305 -6.00904,-1.02557 -12.0624,-2.01686 -18.09539,-2.85328 z m -2.15104,13.58633 c -2.94927,-0.0174 -3.63302,4.56233 -0.82051,5.43305 9.40676,1.56405 18.85105,3.08621 28.28144,4.46471 2.94402,0.006 3.64042,-4.5721 0.8205,-5.43305 -9.40577,-1.56338 -18.85197,-3.08881 -28.28143,-4.46471 z m -2.15105,13.57893 c -2.94402,-0.006 -3.64042,4.57211 -0.8205,5.43306 9.40676,1.56404 18.85105,3.0862 28.28144,4.46471 2.94949,0.0159 3.6327,-4.56389 0.8205,-5.43306 -9.40574,-1.56388 -18.85217,-3.08635 -28.28144,-4.46471 z" />
    <path
       style="fill:#ffffff;fill-opacity:1;stroke-width:0.237715"
       d="m -133.20499,-219.76699 c -0.75749,-2.90904 -1.51628,-5.56251 -1.6862,-5.8966 -0.36671,-0.72097 -0.99256,-1.03092 -3.62686,-1.79617 -3.33397,-0.9685 -5.5979,-2.29981 -7.918,-4.65622 -1.69004,-1.71648 -2.86585,-3.61722 -3.82937,-6.19031 -0.64815,-1.73086 -0.74804,-2.33192 -0.84259,-5.07017 -0.0921,-2.66618 -0.0346,-3.37188 0.40632,-4.97857 1.30318,-4.75012 4.54694,-8.77596 8.77459,-10.89014 1.22267,-0.61143 2.37058,-1.11171 2.55091,-1.11171 0.18032,0 0.37535,0.24068 0.43335,0.53486 0.45076,2.28596 0.9772,4.23208 1.33637,4.94033 0.95084,1.87492 3.3655,2.05218 4.7079,0.34559 0.62729,-0.79747 0.66242,-1.99544 0.12189,-4.15676 -0.47773,-1.91022 -0.53406,-5.62324 -0.11183,-7.36917 1.31556,-5.43964 5.87015,-10.02491 11.20245,-11.27793 1.97742,-0.46467 5.15577,-0.46457 7.12785,0 2.7546,0.64922 4.85788,1.84825 7.00782,3.99496 2.23012,2.22676 3.2876,4.06234 4.30193,7.46724 0.72878,2.44642 1.35284,3.28176 2.63081,3.5215 1.510109,0.28331 3.091679,-0.81411 3.321979,-2.30505 0.10584,-0.68512 -0.39622,-2.99967 -1.21205,-5.58766 -0.12406,-0.39353 -0.0386,-0.53421 0.39574,-0.65048 1.03926,-0.27828 5.30471,-0.14867 6.81359,0.20706 8.67697,2.04556 14.40511,10.40044 13.12637,19.14574 -0.5726,3.91612 -2.02728,6.70071 -5.28913,10.12469 -1.97286,2.07093 -2.09184,2.25453 -2.08604,3.21915 0.003,0.56263 0.58538,3.32029 1.29332,6.12814 0.70795,2.80785 1.26129,5.13106 1.22966,5.16269 -0.0635,0.0635 -5.67773,1.50447 -31.313539,8.03697 -9.49038,2.41833 -17.30805,4.39697 -17.37262,4.39697 -0.0646,0 -0.73715,-2.38013 -1.49464,-5.28917 z"
       id="path29024" />
    <path
       style="fill:#ffffff;fill-opacity:1;stroke-width:0.237715"
       d="m -126.62893,-200.59431 c -0.43059,-0.2217 -1.05815,-0.87283 -1.39459,-1.44692 -0.59767,-1.01983 -2.22027,-5.66189 -2.22027,-6.35189 0,-0.4318 -1.50685,-0.005 14.26292,-4.03841 28.869029,-7.38352 34.299639,-8.72858 34.482399,-8.54063 0.27989,0.28781 1.17489,5.15951 1.17489,6.39518 0,2.18598 -0.99655,3.32644 -3.80344,4.3527 -1.7169,0.62773 -10.10168,2.84326 -25.306399,6.68678 -13.4256,3.39378 -15.59822,3.76565 -17.19551,2.94319 z"
       id="path29063" />
    <g
       id="g23355"
       transform="matrix(2.8795661,0,0,2.7280248,-375.80822,68.376403)"
       style="fill:#7fc37e;fill-opacity:1">
      <g
         aria-label="Recipes"
         transform="matrix(0.03,0,0,0.03,-52.786407,-10.286495)"
         id="text107252"
         style="font-size:400px;line-height:1.25;white-space:pre;shape-inside:url(#rect107254)">
        <path
           d="m 4425.0977,-2470.1732 v -281.25 h 122.6562 q 99.4141,0 99.4141,78.5156 0,78.9063 -103.9063,78.9063 h -67.5781 v 123.8281 z m 167.7734,0 -78.5156,-137.6953 h 56.4453 l 79.1015,137.6953 z m -117.1875,-163.8672 h 69.9219 q 24.414,0 37.5,-9.7656 13.2812,-9.961 13.2812,-28.711 0,-18.75 -13.4765,-28.9062 -13.2813,-10.1563 -37.8907,-10.1563 h -69.3359 z"
           style="font-weight:600;font-family:'Schibsted Grotesk';-inkscape-font-specification:'Schibsted Grotesk Semi-Bold'"
           id="path25423" />
        <path
           d="m 4778.418,-2465.2904 q -30.6641,0 -54.2969,-13.4766 -23.6328,-13.4765 -37.1094,-38.2812 -13.4765,-24.8047 -13.4765,-58.5938 0,-33.789 13.2812,-58.5937 13.2813,-24.8047 36.7188,-38.2813 23.4375,-13.4765 54.1015,-13.4765 17.1875,0 34.5703,5.2734 17.5782,5.2735 32.0313,18.75 14.6484,13.2813 23.6328,36.9141 8.9844,23.4375 8.9844,59.5703 h -172.2657 v -30.6641 h 129.2969 l -7.4219,11.1328 q -1.1718,-23.6328 -8.2031,-37.8906 -6.8359,-14.4531 -17.7734,-20.8984 -10.7422,-6.6406 -24.0235,-6.6406 -16.7968,0 -28.3203,9.1796 -11.5234,8.9844 -17.5781,25.9766 -5.8594,16.7969 -5.8594,39.8438 0,34.375 13.4766,53.9062 13.4766,19.3359 39.8437,19.3359 17.9688,0 30.6641,-9.1796 12.6953,-9.1797 18.9453,-27.3438 l 44.9219,12.5 q -7.6172,20.5078 -21.6797,33.9844 -14.0625,13.4765 -32.8125,20.3125 -18.75,6.6406 -39.6484,6.6406 z"
           style="font-weight:600;font-family:'Schibsted Grotesk';-inkscape-font-specification:'Schibsted Grotesk Semi-Bold'"
           id="path25425" />
        <path
           d="m 5016.3086,-2465.2904 q -32.0313,0 -55.2734,-13.4766 -23.2422,-13.4765 -35.9375,-38.2812 -12.5,-24.8047 -12.5,-58.5938 0,-33.9843 12.5,-58.789 12.6953,-24.8047 35.9375,-38.086 23.2421,-13.4765 55.0781,-13.4765 23.2422,0 42.7734,8.3984 19.5313,8.3985 33.2031,24.8047 13.6719,16.4063 19.1407,40.2344 l -46.875,10.5469 q -4.6875,-23.2422 -17.1875,-35.1563 -12.3047,-12.1094 -31.25,-12.1094 -25.7813,0 -38.8672,19.9219 -13.086,19.9219 -13.086,54.1016 0,34.1797 12.8907,53.7109 13.0859,19.5313 39.0625,19.5313 18.5547,0 31.0547,-11.1329 12.5,-11.1328 17.7734,-33.2031 l 45.7031,9.7656 q -4.2969,17.9688 -13.2812,31.4454 -8.9844,13.2812 -21.6797,22.2656 -12.5,8.789 -27.5391,13.0859 -15.039,4.4922 -31.6406,4.4922 z"
           style="font-weight:600;font-family:'Schibsted Grotesk';-inkscape-font-specification:'Schibsted Grotesk Semi-Bold'"
           id="path25427" />
        <path
           d="m 5152.832,-2470.1732 v -210.9375 h 48.2422 v 210.9375 z m 24.0235,-240.0391 q -15.0391,0 -24.6094,-9.5703 -9.5703,-9.5703 -9.5703,-24.6094 0,-15.2343 9.5703,-24.6093 9.5703,-9.5703 24.6094,-9.5703 15.2343,0 24.6093,9.5703 9.5704,9.375 9.5704,24.6093 0,15.0391 -9.5704,24.6094 -9.375,9.5703 -24.6093,9.5703 z"
           style="font-weight:600;font-family:'Schibsted Grotesk';-inkscape-font-specification:'Schibsted Grotesk Semi-Bold'"
           id="path25429" />
        <path
           d="m 5259.2773,-2394.0013 v -287.1094 h 45.7032 v 42.9687 l -0.7813,-3.125 q 9.961,-23.0468 28.9063,-33.789 18.9453,-10.9375 41.4062,-10.9375 26.3672,0 45.7031,13.2812 19.5313,13.2813 30.2735,38.086 10.7422,24.8047 10.7422,59.375 0,34.1797 -10.9375,58.9843 -10.7422,24.6094 -30.2735,37.8907 -19.5312,13.0859 -46.0937,13.0859 -22.2656,0 -41.4063,-10.5469 -18.9453,-10.7422 -29.8828,-35.1562 l 4.4922,-0.9766 v 117.9688 z m 98.4375,-108.7891 q 23.2422,0 37.5,-19.3359 14.2579,-19.336 14.2579,-54.2969 0,-34.1797 -13.8672,-53.125 -13.8672,-18.9453 -37.5,-18.9453 -14.4532,0 -26.5625,7.8125 -11.9141,7.6172 -18.9453,23.8281 -7.0313,16.0156 -7.0313,40.8203 0,36.7188 15.0391,55.0781 15.2343,18.1641 37.1093,18.1641 z"
           style="font-weight:600;font-family:'Schibsted Grotesk';-inkscape-font-specification:'Schibsted Grotesk Semi-Bold'"
           id="path25431" />
        <path
           d="m 5604.5898,-2465.2904 q -30.664,0 -54.2968,-13.4766 -23.6328,-13.4765 -37.1094,-38.2812 -13.4766,-24.8047 -13.4766,-58.5938 0,-33.789 13.2813,-58.5937 13.2812,-24.8047 36.7187,-38.2813 23.4375,-13.4765 54.1016,-13.4765 17.1875,0 34.5703,5.2734 17.5781,5.2735 32.0313,18.75 14.6484,13.2813 23.6328,36.9141 8.9843,23.4375 8.9843,59.5703 h -172.2656 v -30.6641 h 129.2969 l -7.4219,11.1328 q -1.1719,-23.6328 -8.2031,-37.8906 -6.8359,-14.4531 -17.7734,-20.8984 -10.7422,-6.6406 -24.0235,-6.6406 -16.7969,0 -28.3203,9.1796 -11.5234,8.9844 -17.5781,25.9766 -5.8594,16.7969 -5.8594,39.8438 0,34.375 13.4766,53.9062 13.4765,19.3359 39.8437,19.3359 17.9688,0 30.6641,-9.1796 12.6953,-9.1797 18.9453,-27.3438 l 44.9219,12.5 q -7.6172,20.5078 -21.6797,33.9844 -14.0625,13.4765 -32.8125,20.3125 -18.75,6.6406 -39.6485,6.6406 z"
           style="font-weight:600;font-family:'Schibsted Grotesk';-inkscape-font-specification:'Schibsted Grotesk Semi-Bold'"
           id="path25433" />
        <path
           d="m 5826.0742,-2465.2904 q -23.4375,0 -43.75,-7.0312 -20.1172,-7.2266 -33.789,-22.0704 -13.4766,-15.039 -17.5782,-38.4765 l 45.8985,-8.9844 q 1.9531,20.5078 14.2578,30.6641 12.5,10.1562 33.2031,10.1562 20.5078,0 31.25,-8.9844 10.9375,-8.9843 10.9375,-21.4843 0,-10.9375 -8.2031,-18.1641 -8.0078,-7.2266 -25.7813,-10.1562 l -21.6797,-3.711 q -10.9375,-1.9531 -23.0468,-5.0781 -12.1094,-3.3203 -22.8516,-9.375 -10.7422,-6.25 -17.5781,-16.7969 -6.6406,-10.7422 -6.6406,-27.1484 0,-20.8985 11.1328,-35.1563 11.1328,-14.2578 30.0781,-21.4843 19.1406,-7.4219 42.9687,-7.4219 23.2422,0 41.6016,7.0312 18.5547,6.836 30.6641,20.1172 12.3047,13.2813 16.0156,32.6172 l -46.4844,9.375 q -1.3672,-9.375 -5.664,-16.9922 -4.2969,-7.8125 -12.8907,-12.3047 -8.3984,-4.6875 -22.2656,-4.6875 -16.2109,0 -26.7578,6.6407 -10.5469,6.4453 -10.5469,18.5546 0,8.0079 4.6875,13.2813 4.8828,5.0781 13.6719,8.3984 8.7891,3.3203 20.7031,5.6641 l 23.4375,4.4922 q 16.6016,2.7344 31.25,9.5703 14.6485,6.6406 23.6328,18.75 9.1797,12.1094 9.1797,31.8359 0,21.875 -11.5234,37.3047 -11.5235,15.2344 -31.6406,23.2422 -20.1172,7.8125 -45.8985,7.8125 z"
           style="font-weight:600;font-family:'Schibsted Grotesk';-inkscape-font-specification:'Schibsted Grotesk Semi-Bold'"
           id="path25435" />
      </g>
      <g
         aria-label="Haven"
         transform="matrix(0.03,0,0,0.03,-49.028964,0.24387744)"
         id="text107252-0"
         style="font-size:400px;line-height:1.25;white-space:pre;shape-inside:url(#rect107254-9)">
        <path
           d="m 4423.3398,-2470.1732 v -281.25 h 60.3516 v 114.6484 h 125 v -114.6484 h 60.3516 v 281.25 h -60.3516 v -115.625 h -125 v 115.625 z"
           style="font-weight:bold;font-family:'Schibsted Grotesk';-inkscape-font-specification:'Schibsted Grotesk Bold'"
           id="path25438" />
        <path
           d="m 4784.082,-2465.0951 q -20.1172,0 -37.1093,-7.0312 -16.9922,-7.2266 -27.3438,-21.2891 -10.1562,-14.0625 -10.1562,-35.1562 0,-22.6563 13.0859,-38.4766 13.0859,-15.8203 38.0859,-24.0234 25,-8.3985 60.3516,-8.3985 h 29.6875 l -3.5156,5.2735 v -12.1094 q 0,-20.8985 -7.6172,-31.0547 -7.6172,-10.3516 -25.1953,-10.3516 -16.7969,0 -25.7813,8.9844 -8.789,8.7891 -10.7422,25.1953 l -59.375,-10.1562 q 3.3203,-17.5782 15.0391,-31.6407 11.9141,-14.2578 32.8125,-22.6562 20.8984,-8.3984 51.3672,-8.3984 27.9297,0 47.2656,8.9843 19.3359,8.7891 29.2969,28.711 10.1562,19.9218 10.1562,53.3203 v 71.6797 q 0,6.6406 1.7578,8.789 1.9532,2.1485 8.0079,2.1485 h 9.5703 v 42.5781 h -27.7344 q -22.8516,0 -34.7656,-11.3281 -11.7188,-11.5235 -11.7188,-33.0078 v -9.961 l 10.1563,3.9063 q -2.5391,8.3984 -7.4219,17.9687 -4.8828,9.5703 -13.6719,18.1641 -8.5937,8.3984 -21.875,13.8672 -13.2812,5.4687 -32.6172,5.4687 z m 16.7969,-39.8437 q 13.6719,0 24.2188,-6.25 10.5468,-6.25 16.6015,-18.75 6.0547,-12.6953 6.0547,-31.4453 v -4.4922 h -24.6094 q -20.8984,0 -32.6172,5.4687 -11.5234,5.4688 -16.2109,13.4766 -4.6875,7.8125 -4.6875,15.2344 0,5.8593 2.7344,12.1093 2.9297,6.25 9.5703,10.5469 6.8359,4.1016 18.9453,4.1016 z"
           style="font-weight:bold;font-family:'Schibsted Grotesk';-inkscape-font-specification:'Schibsted Grotesk Bold'"
           id="path25440" />
        <path
           d="m 5007.1289,-2470.1732 -79.8828,-210.9375 h 65.0391 l 52.1484,169.5312 h -5.2734 l 51.9531,-169.5312 h 64.8437 l -79.4922,210.9375 z"
           style="font-weight:bold;font-family:'Schibsted Grotesk';-inkscape-font-specification:'Schibsted Grotesk Bold'"
           id="path25442" />
        <path
           d="m 5277.6367,-2465.0951 q -31.0547,0 -55.8594,-13.4765 -24.6093,-13.4766 -39.0625,-38.2813 -14.2578,-25 -14.2578,-58.9844 0,-33.789 14.0625,-58.5937 14.2578,-24.8047 38.6719,-38.2813 24.6094,-13.4765 56.0547,-13.4765 17.3828,0 35.1562,5.2734 17.9688,5.2734 33.0079,18.75 15.039,13.2813 24.2187,37.3047 9.1797,23.8281 9.1797,60.9375 h -173.0469 v -33.2031 h 121.0938 l -6.0547,10.3515 q -1.5625,-21.0937 -7.8125,-33.9843 -6.25,-12.8907 -15.8203,-18.75 -9.5703,-5.8594 -21.4844,-5.8594 -15.4297,0 -25.7813,8.789 -10.3515,8.7891 -15.625,24.6094 -5.0781,15.625 -5.0781,36.3281 0,31.25 11.7188,49.4141 11.914,18.1641 36.3281,18.1641 15.8203,0 27.1484,-8.2032 11.5235,-8.2031 17.5782,-25 l 52.7343,13.4766 q -7.4218,21.875 -22.4609,35.7422 -15.0391,13.8672 -34.5703,20.5078 -19.336,6.4453 -40.0391,6.4453 z"
           style="font-weight:bold;font-family:'Schibsted Grotesk';-inkscape-font-specification:'Schibsted Grotesk Bold'"
           id="path25444" />
        <path
           d="m 5420.0195,-2470.1732 v -210.9375 h 56.25 v 48.6328 l -1.3672,-8.7891 q 9.5704,-20.8984 27.1485,-32.8125 17.5781,-12.1093 42.3828,-12.1093 24.6094,0 40.2344,11.1328 15.8203,11.1328 23.4375,30.8594 7.6172,19.7265 7.6172,45.5078 v 128.5156 h -58.2032 v -124.8047 q 0,-22.4609 -7.4218,-34.7656 -7.4219,-12.5 -25.7813,-12.5 -21.6797,0 -33.9844,18.5547 -12.1093,18.5547 -12.1093,56.8359 v 96.6797 z"
           style="font-weight:bold;font-family:'Schibsted Grotesk';-inkscape-font-specification:'Schibsted Grotesk Bold'"
           id="path25446" />
      </g>
    </g>
  </g>
</svg>
