<?xml version="1.0" encoding="utf-8"?>
<!-- Generator: Adobe Illustrator 13.0.0, SVG Export Plug-In . SVG Version: 6.00 Build 14948)  -->
<!DOCTYPE svg PUBLIC "-//W3C//DTD SVG 1.1//EN" "http://www.w3.org/Graphics/SVG/1.1/DTD/svg11.dtd">
<svg version="1.1"
	 id="svg24217" inkscape:version="1.1.1 (3bf5ae0d25, 2021-09-20)" sodipodi:docname="RecipesHavenLogoWhiteBg.svg" xmlns:inkscape="http://www.inkscape.org/namespaces/inkscape" xmlns:sodipodi="http://sodipodi.sourceforge.net/DTD/sodipodi-0.dtd" xmlns:svg="http://www.w3.org/2000/svg"
	 xmlns="http://www.w3.org/2000/svg" xmlns:xlink="http://www.w3.org/1999/xlink" x="0px" y="0px" width="398.015px"
	 height="428.156px" viewBox="0 0 398.015 428.156" enable-background="new 0 0 398.015 428.156" xml:space="preserve">
<sodipodi:namedview  id="namedview24219" inkscape:window-maximized="1" inkscape:pagecheckerboard="0" fit-margin-bottom="0" fit-margin-right="0" inkscape:current-layer="layer1" inkscape:window-y="-9" inkscape:window-x="-9" inkscape:window-height="1005" inkscape:window-width="1920" inkscape:document-units="mm" inkscape:pageopacity="0.0" inkscape:pageshadow="2" bordercolor="#666666" inkscape:cy="540.18333" pagecolor="#ffffff" inkscape:cx="530.03537" inkscape:zoom="0.64052329" fit-margin-left="0" showgrid="false" fit-margin-top="0" borderopacity="1.0">
	</sodipodi:namedview>
<g id="layer1" transform="translate(157.22996,283.74763)" inkscape:groupmode="layer" inkscape:label="Capa 1">
	<g id="g14647" transform="matrix(4.0213502,0,0,4.0213502,-165.35567,-178.88921)">
		<path id="path9559" fill="#7FC37E" d="M14.986-14.022c1.064-5.468,5.168-10.114,10.928-11.586
			c5.76-1.472,11.59,0.635,15.147,4.922c0.228-0.069,0.458-0.133,0.691-0.193c8.722-2.229,17.599,3.034,19.827,11.756
			c1.531,5.989-0.472,12.047-4.694,15.977l2.106,8.243c0.631,2.468,1.157,4.525,1.355,6.215c0.209,1.783,0.097,3.47-0.834,5.041
			c-0.931,1.571-2.358,2.479-4.022,3.151c-1.577,0.637-3.635,1.163-6.103,1.794l-16.764,4.284c-2.468,0.63-4.525,1.157-6.215,1.355
			c-1.783,0.209-3.47,0.097-5.041-0.835c-1.57-0.931-2.478-2.357-3.151-4.022c-0.637-1.577-1.163-3.635-1.793-6.103l-2.107-8.243
			C8.726,16.31,4.063,11.956,2.532,5.967C0.303-2.754,5.567-11.631,14.288-13.86C14.521-13.919,14.753-13.974,14.986-14.022
			L14.986-14.022z M14.802-9.589C8.68-7.723,5.051-1.35,6.652,4.915c1.222,4.783,5.152,8.164,9.739,8.912
			c0.834,0.136,1.508,0.753,1.718,1.572l1.871,7.322l34.33-8.773l-1.871-7.322c-0.209-0.819,0.086-1.684,0.753-2.203
			c3.666-2.858,5.491-7.709,4.269-12.492c-1.601-6.265-7.843-10.115-14.11-8.815c0.266,0.645,0.49,1.316,0.668,2.011l0.351,1.373
			c0.291,1.138-0.396,2.295-1.533,2.586c-1.137,0.291-2.295-0.396-2.586-1.533l-0.351-1.373c-0.297-1.161-0.772-2.225-1.389-3.171
			c-2.418-3.714-7.015-5.653-11.542-4.496c-4.527,1.157-7.63,5.063-7.97,9.482c-0.087,1.126,0.006,2.287,0.303,3.449l0.351,1.373
			c0.291,1.138-0.396,2.295-1.533,2.586c-1.138,0.291-2.295-0.396-2.586-1.533l-0.351-1.373C15.003-8.199,14.878-8.896,14.802-9.589
			L14.802-9.589z M55.357,18.068l-34.32,8.771c0.411,1.561,0.751,2.731,1.121,3.647c0.494,1.224,0.927,1.691,1.377,1.957
			c0.449,0.267,1.067,0.422,2.378,0.269c1.372-0.161,3.152-0.611,5.799-1.288l16.478-4.211c2.647-0.677,4.425-1.135,5.706-1.653
			c1.224-0.495,1.691-0.928,1.957-1.377c0.266-0.449,0.422-1.067,0.269-2.378C56.008,20.825,55.745,19.635,55.357,18.068
			L55.357,18.068z"/>
		<path id="path14161" fill="#7FC37E" d="M19.933,22.513c-0.027-0.081-0.457-1.746-0.955-3.699
			c-0.498-1.953-0.975-3.686-1.061-3.851c-0.356-0.682-0.777-0.925-2.251-1.301c-2.297-0.586-4.015-1.511-5.603-3.017
			c-1.159-1.099-1.84-2.026-2.531-3.446C6.644,5.375,6.338,4.024,6.335,1.926c-0.002-1.482,0.041-1.881,0.31-2.903
			c0.873-3.314,3.015-6.085,5.902-7.635c0.477-0.256,1.156-0.579,1.509-0.717c0.699-0.273,0.835-0.218,0.838,0.345
			c0.004,0.58,0.627,2.926,0.908,3.415c0.701,1.223,2.479,1.362,3.401,0.265c0.563-0.669,0.612-1.173,0.259-2.629
			c-0.431-1.774-0.544-2.926-0.417-4.261c0.439-4.644,3.858-8.449,8.435-9.391c1.411-0.29,3.263-0.248,4.661,0.107
			c1.402,0.356,2.375,0.797,3.554,1.612c2.144,1.482,3.534,3.572,4.321,6.493c0.408,1.518,0.645,1.928,1.308,2.266
			c1.375,0.701,3.075-0.284,3.075-1.782c0-0.554-0.483-2.555-0.828-3.43l-0.23-0.583l0.559-0.095
			c0.307-0.053,1.252-0.089,2.099-0.08c1.247,0.013,1.766,0.075,2.725,0.326c4.556,1.194,7.895,4.707,8.853,9.315
			c0.191,0.92,0.223,1.429,0.176,2.784c-0.068,1.957-0.315,3.007-1.097,4.663c-0.709,1.5-1.417,2.463-2.849,3.868
			c-1.76,1.729-1.725,1.338-0.538,6.014c0.533,2.101,0.968,3.875,0.967,3.942c-0.002,0.067-0.763,0.318-1.692,0.557
			c-7.406,1.909-32.363,8.267-32.451,8.267C20.033,22.661,19.96,22.594,19.933,22.513z"/>
		<path id="path14200" fill="#7FC37E" d="M23.7,32.502c-0.622-0.283-1.11-0.945-1.562-2.122c-0.37-0.962-1.12-3.454-1.059-3.514
			c0.033-0.033,3.184-0.846,11.234-2.901c1.531-0.391,3.931-1.004,5.332-1.362c17.963-4.592,17.629-4.508,17.694-4.441
			c0.172,0.178,0.711,3.079,0.761,4.095c0.05,1.021,0.024,1.272-0.18,1.733c-0.384,0.868-1.295,1.392-3.701,2.129
			c-1.752,0.537-22.726,5.887-24.586,6.271C25.654,32.797,24.429,32.833,23.7,32.502z"/>
	</g>
	<path id="path9583" fill="#7FC37E" d="M80.014-257.035c-17.193,0.466-32.131,13.196-36.773,29.502
		c-8.64,29.397-11.008,60.261-16.483,90.358c-2.456,20.377-8.773,42.183-0.804,62.078C33.894-56.681,55.077-51.168,73-48.001
		c29.848,4.683,59.592,10.979,89.783,12.8c16.822,1.244,34.664-7.15,41.363-23.229c9.916-23.808,10.93-50.169,15.754-75.294
		c3.023-24.096,9.887-48.25,7.375-72.667c-1.877-17.386-16.732-30.242-33.086-34.112c-29.541-7.313-59.914-10.786-89.945-15.431
		C96.217-256.888,88.098-257.679,80.014-257.035L80.014-257.035z M84.519-241.34c28.381,1.067,56.271,7.441,84.339,11.555
		c13.832,3.182,31.201,3.877,39.727,16.984c7.113,14.989,1.633,32.298,0.127,48.058c-5.418,30.715-8.439,62.097-16.135,92.259
		c-2.543,11.336-11.656,21.194-23.887,21.212c-26.953,0.21-53.362-6.571-79.994-10.105c-15.223-3.353-32.852-3.579-44.742-14.85
		c-10.204-13.027-4.736-30.75-3.438-45.763c5.475-32.298,9.005-65.163,16.639-96.951c2.384-10.88,10.646-21.571,22.396-22.021
		C81.195-241.22,82.859-241.245,84.519-241.34L84.519-241.34z M92.209-198.763c-8.36-0.046-10.307,12.97-2.326,15.401
		c17.039,2.908,34.186,5.716,51.294,8.088c8.358,0.046,10.31-12.971,2.325-15.4C126.469-193.582,109.311-196.392,92.209-198.763
		L92.209-198.763z M86.111-160.251c-8.36-0.049-10.299,12.933-2.326,15.4c26.665,4.434,53.436,8.749,80.168,12.656
		c8.346,0.017,10.318-12.96,2.326-15.401C139.617-152.026,112.84-156.351,86.111-160.251z M80.014-121.759
		c-8.346-0.017-10.319,12.96-2.326,15.401c26.665,4.434,53.437,8.749,80.168,12.656c8.361,0.045,10.297-12.937,2.326-15.4
		C133.52-113.536,106.742-117.852,80.014-121.759z"/>
	<path id="path29024" fill="#FFFFCC" d="M-89.127-102.385c-2.147-8.246-4.298-15.768-4.78-16.715
		c-1.04-2.043-2.814-2.922-10.281-5.091c-9.451-2.746-15.868-6.519-22.444-13.199c-4.791-4.866-8.124-10.253-10.855-17.547
		c-1.837-4.906-2.121-6.61-2.389-14.372c-0.261-7.558-0.098-9.558,1.152-14.113c3.694-13.465,12.889-24.876,24.873-30.87
		c3.466-1.733,6.72-3.151,7.231-3.151c0.511,0,1.064,0.683,1.228,1.516c1.278,6.48,2.77,11.997,3.788,14.004
		c2.695,5.314,9.54,5.817,13.345,0.979c1.778-2.261,1.878-5.656,0.346-11.783c-1.354-5.415-1.514-15.94-0.317-20.889
		c3.729-15.419,16.64-28.417,31.755-31.969c5.605-1.317,14.615-1.316,20.205,0c7.808,1.841,13.77,5.239,19.865,11.325
		c6.321,6.312,9.319,11.515,12.194,21.167c2.066,6.935,3.834,9.303,7.458,9.982c4.28,0.803,8.764-2.308,9.417-6.534
		c0.3-1.942-1.123-8.503-3.436-15.839c-0.352-1.115-0.109-1.514,1.122-1.844c2.946-0.789,15.037-0.421,19.314,0.587
		c24.596,5.799,40.833,29.482,37.208,54.271c-1.623,11.101-5.746,18.994-14.992,28.7c-5.593,5.87-5.93,6.391-5.914,9.125
		c0.009,1.595,1.66,9.412,3.666,17.371c2.008,7.959,3.576,14.544,3.486,14.634c-0.18,0.18-16.094,4.265-88.763,22.782
		c-26.902,6.855-49.063,12.464-49.246,12.464S-86.98-94.14-89.127-102.385L-89.127-102.385z"/>
	<path id="path29063" fill="#FFFFCC" d="M-70.487-48.038c-1.221-0.628-3-2.474-3.953-4.102c-1.694-2.891-6.294-16.05-6.294-18.005
		c0-1.224-4.271-0.015,40.431-11.448c81.833-20.93,97.227-24.742,97.745-24.209c0.794,0.816,3.331,14.625,3.331,18.128
		c0,6.196-2.825,9.429-10.781,12.338c-4.867,1.779-28.635,8.06-71.735,18.955C-59.8-46.76-65.959-45.707-70.487-48.038
		L-70.487-48.038z"/>
	<g id="g23355" transform="matrix(2.8795661,0,0,2.7280248,-375.80822,68.376403)">
		<g id="text107252" transform="matrix(0.03,0,0,0.03,-52.786407,-10.286495)">
			<path id="path25423" fill="#7FC37E" d="M4673.376,262.518v-797.232h347.687c187.87,0,281.804,74.184,281.804,222.564
				c0,149.108-98.18,223.662-294.539,223.662h-191.561v351.006H4673.376z M5148.957,262.518l-222.563-390.311h159.998
				l224.225,390.311H5148.957z M4816.769-201.989h198.208c46.134,0,81.567-9.212,106.296-27.683
				c25.102-18.818,37.649-45.94,37.649-81.379s-12.734-62.741-38.204-81.928c-25.096-19.199-60.897-28.805-107.404-28.805h-196.545
				V-201.989z"/>
			<path id="path25425" fill="#7FC37E" d="M5674.917,276.36c-57.947,0-109.252-12.732-153.917-38.196
				c-44.658-25.476-79.719-61.643-105.188-108.514c-25.469-46.883-38.204-102.237-38.204-166.088
				c0-63.863,12.554-119.229,37.65-166.1s59.795-83.05,104.086-108.514s95.41-38.196,153.357-38.196
				c32.478,0,65.148,4.976,97.993,14.951c33.218,9.952,63.486,27.683,90.798,53.147c27.685,25.094,50.011,59.973,66.99,104.636
				c16.979,44.281,25.469,100.579,25.469,168.856h-488.315v-86.916h366.515l-21.038,31.549
				c-2.215-44.651-9.965-80.449-23.253-107.392c-12.921-27.325-29.714-47.062-50.384-59.257
				c-20.297-12.541-42.997-18.818-68.099-18.818c-31.737,0-58.501,8.675-80.279,26.025c-21.772,16.968-38.385,41.525-49.825,73.635
				c-11.073,31.74-16.612,69.387-16.612,112.941c0,64.96,12.734,115.888,38.204,152.807c25.469,36.537,63.113,54.806,112.943,54.806
				c33.953,0,62.932-8.675,86.92-26.025c23.994-17.35,41.895-43.172,53.702-77.501l127.34,35.428
				c-14.396,38.757-34.88,70.867-61.457,96.343c-26.571,25.464-57.574,44.651-93.008,57.574
				C5751.872,270.083,5714.409,276.36,5674.917,276.36z"/>
			<path id="path25427" fill="#7FC37E" d="M6349.253,276.36c-60.536,0-112.763-12.732-156.681-38.196
				c-43.923-25.476-77.882-61.643-101.871-108.514c-23.626-46.883-35.434-102.237-35.434-166.088
				c0-64.221,11.808-119.778,35.434-166.649c23.988-46.871,57.947-82.859,101.871-107.965
				c43.918-25.464,95.964-38.196,156.126-38.196c43.918,0,84.337,7.935,121.247,23.805s68.279,39.306,94.116,70.306
				s43.918,69.017,54.262,114.051l-132.879,29.903c-8.857-43.923-25.096-77.143-48.717-99.66
				c-23.253-22.886-52.781-34.318-88.582-34.318c-48.722,0-85.445,18.818-110.179,56.464c-24.729,37.647-37.09,88.778-37.09,153.356
				c0,64.602,12.181,115.339,36.542,152.258c24.729,36.907,61.638,55.367,110.728,55.367c35.061,0,64.408-10.524,88.028-31.561
				s40.414-52.419,50.378-94.123l129.555,27.683c-8.128,33.96-20.67,63.672-37.649,89.136
				c-16.979,25.094-37.463,46.143-61.451,63.111c-23.626,16.61-49.644,28.972-78.063,37.098
				C6410.518,272.112,6380.623,276.36,6349.253,276.36z"/>
			<path id="path25429" fill="#7FC37E" d="M6736.24,262.518v-597.936h136.762v597.936H6736.24z M6804.338-417.895
				c-28.419,0-51.662-9.045-69.749-27.134c-18.087-18.09-27.131-41.334-27.131-69.757c0-28.793,9.043-52.049,27.131-69.757
				c18.087-18.09,41.329-27.134,69.749-27.134c28.793,0,52.046,9.045,69.771,27.134c18.087,17.708,27.12,40.964,27.12,69.757
				c0,28.423-9.032,51.668-27.12,69.757C6856.384-426.94,6833.131-417.895,6804.338-417.895z"/>
			<path id="path25431" fill="#7FC37E" d="M7037.98,478.448v-813.866h129.55v121.807l-2.216-8.854
				c18.833-43.554,46.145-75.485,81.935-95.782c35.813-20.667,74.926-31.001,117.386-31.001c49.83,0,93.014,12.541,129.55,37.647
				c36.898,25.094,65.51,61.082,85.813,107.965c20.292,46.871,30.443,102.977,30.443,168.296
				c0,64.602-10.332,120.327-30.997,167.198c-20.303,46.513-48.903,82.31-85.824,107.416
				c-36.898,24.724-80.454,37.086-130.657,37.086c-42.076,0-81.189-9.964-117.364-29.891c-35.813-20.297-64.04-53.517-84.716-99.66
				l12.74-2.756v334.396H7037.98z M7317.021,170.065c43.918,0,79.358-18.269,106.296-54.818
				c26.939-36.537,40.414-87.835,40.414-153.905c0-64.59-13.102-114.79-39.306-150.588c-26.215-35.797-61.644-53.708-106.296-53.708
				c-27.312,0-52.419,7.386-75.299,22.147c-22.519,14.402-40.414,36.907-53.708,67.55c-13.283,30.261-19.93,68.826-19.93,115.709
				c0,69.387,14.21,121.437,42.629,156.124C7240.613,152.907,7275.669,170.065,7317.021,170.065z"/>
			<path id="path25433" fill="#7FC37E" d="M8016.815,276.36c-57.947,0-109.247-12.732-153.899-38.196
				c-44.675-25.476-79.731-61.643-105.2-108.514c-25.469-46.883-38.209-102.237-38.209-166.088c0-63.863,12.56-119.229,37.655-166.1
				c25.096-46.871,59.79-83.05,104.081-108.514c44.292-25.464,95.41-38.196,153.357-38.196c32.489,0,65.16,4.976,98.01,14.951
				c33.213,9.952,63.463,27.683,90.798,53.147c27.674,25.094,50.011,59.973,66.99,104.636
				c16.957,44.281,25.458,100.579,25.458,168.856h-488.31v-86.916h366.515l-21.049,31.549
				c-2.216-44.651-9.971-80.449-23.242-107.392c-12.932-27.325-29.73-47.062-50.396-59.257
				c-20.303-12.541-43.002-18.818-68.098-18.818c-31.743,0-58.49,8.675-80.262,26.025c-21.795,16.968-38.39,41.525-49.83,73.635
				c-11.079,31.74-16.618,69.387-16.618,112.941c0,64.96,12.729,115.888,38.209,152.807c25.458,36.537,63.102,54.806,112.932,54.806
				c33.959,0,62.944-8.675,86.932-26.025c23.988-17.35,41.895-43.172,53.697-77.501l127.333,35.428
				c-14.379,38.757-34.886,70.867-61.451,96.343c-26.565,25.464-57.585,44.651-93.013,57.574
				C8093.776,270.083,8056.313,276.36,8016.815,276.36z"/>
			<path id="path25435" fill="#7FC37E" d="M8644.645,276.36c-44.291,0-85.62-6.634-124.01-19.927
				c-38.028-13.651-69.952-34.509-95.772-62.562c-25.48-28.411-42.075-64.781-49.83-109.075l130.093-25.464
				c3.708,38.757,17.16,67.729,40.425,86.928c23.626,19.199,54.985,28.793,94.121,28.793c38.752,0,68.279-8.496,88.582-25.476
				c20.665-16.98,30.997-37.277,30.997-60.891c0-20.667-7.755-37.838-23.242-51.501c-15.147-13.651-39.498-23.244-73.095-28.781
				L8601.462-2.12c-20.665-3.687-42.438-8.484-65.317-14.391c-22.903-6.276-44.495-15.13-64.775-26.574
				c-20.303-11.813-36.92-27.683-49.83-47.622c-12.548-20.285-18.833-45.94-18.833-76.953c0-39.485,10.513-72.705,31.562-99.648
				c21.026-26.944,49.446-47.253,85.259-60.903c36.175-14.033,76.78-21.037,121.795-21.037c43.93,0,83.246,6.646,117.929,19.927
				c35.066,12.923,64.052,31.919,86.932,57.025c23.242,25.106,38.367,55.916,45.399,92.453l-131.766,26.586
				c-2.601-17.72-7.936-33.769-16.075-48.171c-8.116-14.76-20.28-26.383-36.536-34.879c-15.871-8.854-36.898-13.293-63.102-13.293
				c-30.636,0-55.935,6.276-75.854,18.829c-19.941,12.171-29.889,29.712-29.889,52.598c0,15.13,4.408,27.683,13.271,37.647
				c9.224,9.594,22.156,17.529,38.751,23.805c16.618,6.276,36.175,11.622,58.693,16.061l66.448,12.72
				c31.358,5.179,60.886,14.224,88.582,27.134c27.673,12.553,50.011,30.261,66.99,53.147c17.341,22.886,26.023,52.968,26.023,90.245
				c0,41.346-10.897,76.595-32.67,105.746c-21.772,28.793-51.685,50.749-89.69,65.879
				C8736.731,268.986,8693.367,276.36,8644.645,276.36z"/>
		</g>
		<g id="text107252-0" transform="matrix(0.03,0,0,0.03,-49.028964,0.24387744)">
			<path id="path25438" fill="#7FC37E" d="M4898.178,906.507V109.263h171.077v324.981h354.329V109.263h171.077v797.244h-171.077
				V578.746h-354.329v327.761H4898.178z"/>
			<path id="path25440" fill="#7FC37E" d="M5920.755,920.897c-38.017,0-73.078-6.646-105.194-19.927
				c-32.111-13.663-57.947-33.769-77.51-60.343c-19.189-26.586-28.787-59.794-28.787-99.66c0-42.814,12.361-79.172,37.096-109.063
				c24.729-29.903,60.716-52.598,107.958-68.099c47.242-15.87,104.267-23.817,171.077-23.817h84.151l-9.965,14.951v-34.33
				c0-39.485-7.195-68.827-21.592-88.014c-14.396-19.569-38.204-29.354-71.422-29.354c-31.737,0-56.099,8.496-73.078,25.464
				c-16.612,16.61-26.758,40.427-30.449,71.428l-168.308-28.793c6.274-33.208,20.484-63.111,42.629-89.696
				c22.513-26.944,53.521-48.35,93.014-64.221c39.492-15.87,88.028-23.793,145.608-23.793c52.775,0,97.439,8.484,133.981,25.464
				c36.536,16.61,64.221,43.733,83.043,81.379c19.195,37.659,28.792,88.038,28.792,151.149v203.186
				c0,12.553,1.656,20.846,4.979,24.915c3.691,4.057,11.259,6.086,22.7,6.086h27.131v120.697h-78.617
				c-43.184,0-76.034-10.703-98.547-32.11c-22.146-21.777-33.218-52.968-33.218-93.563V752.59l28.787,11.073
				c-4.799,15.87-11.813,32.85-21.038,50.94c-9.23,18.09-22.146,35.249-38.758,51.489c-16.239,15.87-36.909,28.972-62.005,39.306
				C5988.113,915.731,5957.297,920.897,5920.755,920.897z M5968.37,807.957c25.836,0,48.717-5.907,68.652-17.72
				c19.93-11.813,35.615-29.521,47.061-53.147c11.44-23.984,17.16-53.696,17.16-89.136v-12.732h-69.76
				c-39.492,0-70.314,5.167-92.459,15.5c-21.772,10.333-37.09,23.065-45.947,38.208c-8.862,14.76-13.288,29.151-13.288,43.184
				c0,11.073,2.583,22.505,7.749,34.318c5.539,11.813,14.577,21.777,27.131,29.903
				C5927.583,804.078,5945.484,807.957,5968.37,807.957z"/>
			<path id="path25442" fill="#7FC37E" d="M6553.022,906.507l-226.446-597.936h184.359l147.829,480.568h-14.944l147.252-480.568
				h183.812l-225.322,597.936H6553.022z"/>
			<path id="path25444" fill="#7FC37E" d="M7319.807,920.897c-58.693,0-111.462-12.732-158.342-38.196
				c-46.507-25.476-83.416-61.643-110.728-108.514c-26.95-47.241-40.414-102.977-40.414-167.198
				c0-63.863,13.283-119.217,39.86-166.088c26.938-46.883,63.486-83.05,109.62-108.514c46.507-25.476,99.479-38.208,158.896-38.208
				c32.851,0,66.064,4.988,99.661,14.939c33.959,9.976,65.137,27.683,93.556,53.159c28.419,25.094,51.311,60.342,68.664,105.746
				c17.341,45.021,26.023,102.607,26.023,172.734h-490.537v-94.123h343.262l-17.16,29.342
				c-2.962-39.854-10.333-71.977-22.157-96.331c-11.802-24.354-26.746-42.074-44.833-53.147s-38.39-16.61-60.909-16.61
				c-29.154,0-53.516,8.305-73.072,24.915c-19.568,16.61-34.332,39.866-44.291,69.757c-9.609,29.533-14.402,63.851-14.402,102.977
				c0,59.054,11.079,105.746,33.213,140.075c22.519,34.318,56.851,51.489,102.984,51.489c29.9,0,55.551-7.756,76.961-23.256
				c21.772-15.5,38.39-39.127,49.83-70.867l149.479,38.208c-14.029,41.334-35.259,75.103-63.678,101.307
				c-28.419,26.216-61.078,45.582-97.987,58.135C7396.769,914.812,7358.932,920.897,7319.807,920.897z"/>
			<path id="path25446" fill="#7FC37E" d="M7723.423,906.507V308.571h159.439v137.868l-3.866-24.915
				c18.087-39.496,43.726-70.497,76.938-93.026c33.235-22.875,73.276-34.318,120.145-34.318c46.507,0,84.535,10.524,114.063,31.549
				c29.889,21.049,52.023,50.212,66.425,87.489c14.402,37.277,21.592,80.27,21.592,128.99v364.298H8113.18V552.733
				c0-42.456-7.009-75.294-21.049-98.55c-14.018-23.626-38.368-35.427-73.072-35.427c-40.968,0-73.072,17.517-96.337,52.586
				c-22.88,35.07-34.321,88.766-34.321,161.112v274.053H7723.423z"/>
		</g>
	</g>
</g>
</svg>
