<?xml version="1.0" encoding="UTF-8" standalone="no"?>
<!-- Created with Inkscape (http://www.inkscape.org/) -->

<svg
   width="447.72556mm"
   height="143.78433mm"
   viewBox="0 0 447.72555 143.78433"
   version="1.1"
   id="svg23441"
   inkscape:version="1.1.1 (3bf5ae0d25, 2021-09-20)"
   sodipodi:docname="RecipesHavenLogoGreenBg.svg"
   xmlns:inkscape="http://www.inkscape.org/namespaces/inkscape"
   xmlns:sodipodi="http://sodipodi.sourceforge.net/DTD/sodipodi-0.dtd"
   xmlns="http://www.w3.org/2000/svg"
   xmlns:svg="http://www.w3.org/2000/svg">
  <sodipodi:namedview
     id="namedview23443"
     pagecolor="#ffffff"
     bordercolor="#666666"
     borderopacity="1.0"
     inkscape:pageshadow="2"
     inkscape:pageopacity="0.0"
     inkscape:pagecheckerboard="0"
     inkscape:document-units="mm"
     showgrid="false"
     inkscape:zoom="0.51150168"
     inkscape:cx="1217.0048"
     inkscape:cy="697.94492"
     inkscape:window-width="1920"
     inkscape:window-height="1005"
     inkscape:window-x="-9"
     inkscape:window-y="-9"
     inkscape:window-maximized="1"
     inkscape:current-layer="layer1"
     fit-margin-top="0"
     fit-margin-left="0"
     fit-margin-right="0"
     fit-margin-bottom="0" />
  <defs
     id="defs23438">
    <rect
       x="4395.6045"
       y="-2836.6299"
       width="2004.3956"
       height="679.85345"
       id="rect107254" />
    <rect
       x="4395.6045"
       y="-2836.6299"
       width="2004.3956"
       height="679.85345"
       id="rect107254-9" />
  </defs>
  <g
     inkscape:label="Capa 1"
     inkscape:groupmode="layer"
     id="layer1"
     transform="translate(446.63316,130.5469)">
    <rect
       style="fill:#7fc37e;fill-opacity:1;stroke-width:0.505744"
       id="rect27800"
       width="447.72556"
       height="143.78433"
       x="-446.63318"
       y="-130.54691" />
    <g
       id="g23365"
       transform="matrix(4.6609811,0,0,4.6609811,-569.55406,291.93096)">
      <path
         id="path9583"
         style="fill:#ffffff;stroke-width:0.908472"
         d="m 52.396484,-85.378906 c -1.602602,0.04339 -2.994997,1.230058 -3.427734,2.75 -0.805411,2.740183 -1.026118,5.617093 -1.53642,8.422539 -0.228892,1.899363 -0.817769,3.931941 -0.07491,5.786445 0.740104,1.716466 2.714639,2.23039 4.38532,2.525624 2.78214,0.436494 5.554726,1.023438 8.368977,1.193126 1.567988,0.115897 3.230998,-0.666469 3.855563,-2.165201 0.924257,-2.21916 1.018687,-4.676429 1.468451,-7.018351 0.281713,-2.246036 0.92154,-4.497572 0.687314,-6.773479 -0.174921,-1.6206 -1.559615,-2.818906 -3.083985,-3.179688 -2.753505,-0.681724 -5.584658,-1.005359 -8.383995,-1.438378 -0.7482,-0.089 -1.50503,-0.16271 -2.258583,-0.102637 z m 0.419922,1.46289 c 2.645462,0.09949 5.245051,0.693635 7.861514,1.077026 1.289226,0.296609 2.908296,0.361408 3.702939,1.583131 0.66312,1.397195 0.152166,3.010562 0.01182,4.479647 -0.504953,2.863049 -0.786593,5.788229 -1.504022,8.599716 -0.236903,1.056697 -1.086373,1.975549 -2.226551,1.977277 -2.512215,0.01952 -4.973953,-0.612503 -7.45634,-0.941995 -1.418915,-0.312433 -3.06226,-0.333649 -4.170613,-1.384177 -0.951065,-1.214307 -0.44142,-2.866278 -0.320449,-4.265708 0.510293,-3.010611 0.839337,-6.074054 1.550918,-9.037026 0.222176,-1.014212 0.992339,-2.010666 2.087596,-2.0527 0.153422,-0.02394 0.30848,-0.02627 0.463185,-0.03519 z m 0.716797,3.96875 c -0.779243,-0.0043 -0.960652,1.208909 -0.216797,1.435547 1.588319,0.271071 3.186587,0.532822 4.78125,0.753907 0.779093,0.0043 0.961072,-1.209086 0.216797,-1.435547 -1.587737,-0.270982 -3.187185,-0.532906 -4.78125,-0.753907 z m -0.568359,3.589844 c -0.779268,-0.0046 -0.959932,1.20548 -0.216797,1.435547 2.485499,0.413259 4.980914,0.815452 7.472656,1.179687 0.777883,0.0017 0.961889,-1.208063 0.216797,-1.435546 -2.485239,-0.413085 -4.981157,-0.816141 -7.472656,-1.179688 z m -0.56836,3.587891 c -0.777882,-0.0017 -0.961888,1.208064 -0.216796,1.435547 2.485499,0.413259 4.980914,0.815452 7.472656,1.179687 0.77933,0.0042 0.959849,-1.205892 0.216797,-1.435547 -2.48523,-0.413218 -4.981211,-0.815492 -7.472657,-1.179687 z" />
      <g
         id="g8872"
         transform="matrix(1.0625403,0,0,1.0625403,-19.744548,4.0161222)">
        <g
           id="g14647"
           transform="translate(45.061736,-60.401312)"
           style="fill:#ffffff">
          <path
             fill-rule="evenodd"
             clip-rule="evenodd"
             d="m 6.5946349,-21.823361 c 0.3752498,-1.928939 1.8230993,-3.567981 3.8551591,-4.0873 2.032089,-0.519331 4.088805,0.224077 5.34345,1.736476 0.08038,-0.0243 0.161605,-0.04696 0.243647,-0.06801 3.076717,-0.786294 6.208377,1.070469 6.99468,4.147223 0.539932,2.112697 -0.166619,4.249789 -1.65598,5.636338 l 0.743107,2.907747 c 0.222487,0.870519 0.408064,1.5963708 0.477842,2.192455 0.07369,0.6291461 0.0341,1.2242794 -0.294458,1.7782832 -0.32842,0.5541089 -0.831589,0.8743687 -1.418942,1.1115871 -0.55647,0.2247846 -1.282366,0.410193 -2.152888,0.632666 l -5.913913,1.511405 C 11.945828,-4.1020191 11.219963,-3.9164116 10.623895,-3.84665 9.994756,-3.772978 9.3996252,-3.8125529 8.8455538,-4.1410925 8.2915075,-4.4695352 7.9712765,-4.972713 7.7340486,-5.5600637 7.5092933,-6.1165411 7.3238167,-6.8424193 7.1013727,-7.7129484 l -0.743112,-2.9077456 c -1.9719828,-0.501958 -3.6172591,-2.03801 -4.1571865,-4.150709 -0.7863043,-3.076753 1.0704682,-6.208376 4.147222,-6.994681 0.082047,-0.02099 0.1641827,-0.04006 0.2463223,-0.05734 z m -0.065043,1.563831 c -2.1598109,0.658402 -3.4400183,2.906728 -2.8752189,5.116749 0.4312289,1.687368 1.8173557,2.87989 3.4357092,3.143899 0.2942032,0.04795 0.5320841,0.265728 0.6058951,0.554545 l 0.660115,2.5829837 12.1107637,-3.0950627 -0.660115,-2.582983 c -0.07376,-0.288829 0.03036,-0.594016 0.265517,-0.777246 1.293259,-1.008109 1.937274,-2.71946 1.506046,-4.406829 -0.564803,-2.210019 -2.76672,-3.568454 -4.977615,-3.109855 0.09398,0.227566 0.172952,0.464315 0.235557,0.70926 l 0.123825,0.484426 c 0.102506,0.401325 -0.139638,0.809791 -0.540942,0.912349 -0.401301,0.102562 -0.809789,-0.13963 -0.912349,-0.540942 l -0.123826,-0.484425 c -0.10474,-0.409673 -0.272525,-0.784841 -0.489845,-1.118686 -0.853225,-1.310381 -2.474831,-1.994178 -4.071902,-1.586024 -1.5970707,0.408153 -2.6917542,1.78613 -2.8116336,3.3452 -0.030531,0.397189 0.00222,0.806864 0.1069227,1.216547 l 0.1238081,0.48443 c 0.1025641,0.401311 -0.13963,0.809789 -0.5409419,0.912349 -0.4013112,0.102564 -0.8097892,-0.13963 -0.9123496,-0.540942 l -0.1238091,-0.484429 c -0.062598,-0.244958 -0.106872,-0.490564 -0.1336082,-0.735315 z M 20.83652,-10.502679 8.7292537,-7.4085099 c 0.1450875,0.5506213 0.2650826,0.9634654 0.3956436,1.2867031 0.1743779,0.431768 0.3271613,0.5965698 0.4856861,0.6905445 0.1585153,0.093977 0.3764085,0.1489373 0.8388756,0.094844 0.484068,-0.056724 1.11186,-0.2155126 2.045852,-0.4542067 l 5.813167,-1.4856302 c 0.93398,-0.2386945 1.56102,-0.40059 2.01291,-0.5830627 0.431753,-0.1744362 0.59656,-0.3271999 0.69054,-0.4857053 0.09398,-0.1585058 0.148939,-0.3763988 0.09483,-0.8389047 -0.0406,-0.3462299 -0.133329,-0.7660408 -0.27025,-1.3187491 z"
             fill="#1c274c"
             id="path9559"
             style="fill:#ffffff" />
          <path
             style="fill:#ffffff;stroke-width:1.39331"
             d="m 277.99047,-297.82084 c -0.32168,-0.9579 -5.37361,-20.53344 -11.22653,-43.50122 -5.85292,-22.96776 -11.47051,-43.34498 -12.48352,-45.2827 -4.19095,-8.01658 -9.13491,-10.87338 -26.4736,-15.29733 -27.00955,-6.89147 -47.21483,-17.77155 -65.88449,-35.47726 -13.62762,-12.924 -21.63676,-23.82931 -29.76433,-40.5273 -10.43401,-21.43657 -14.04001,-37.32407 -14.07273,-62.00247 -0.0231,-17.42609 0.47783,-22.11819 3.6444,-34.13619 10.26967,-38.9762 35.45404,-71.55553 69.39953,-89.77752 5.61256,-3.01283 13.59719,-6.80444 17.74363,-8.4258 8.22256,-3.21521 9.81441,-2.56002 9.85611,4.05674 0.043,6.8193 7.37708,34.40277 10.67752,40.15802 8.24778,14.38233 29.14838,16.01233 39.99716,3.1193 6.6174,-7.86434 7.20196,-13.79892 3.04543,-30.91758 -5.06549,-20.86216 -6.39296,-34.41169 -4.90853,-50.10169 5.1662,-54.60544 45.36461,-99.35846 99.19061,-110.4292 16.59781,-3.41378 38.36711,-2.91543 54.806,1.25464 16.48155,4.18089 27.93155,9.37459 41.79391,18.95763 25.20739,17.42585 41.56113,42.0041 50.80602,76.35703 4.80275,17.84645 7.59023,22.67554 15.38404,26.65164 16.17008,8.24936 36.16432,-3.33767 36.16432,-20.95789 0,-6.51458 -5.67807,-30.04079 -9.73366,-40.32989 l -2.70423,-6.86068 6.56728,-1.12272 c 3.612,-0.61749 14.71816,-1.04112 24.68035,-0.9414 14.66158,0.14677 20.76808,0.87714 32.04622,3.83292 53.58289,14.04301 92.83542,55.34601 104.1027,109.54085 2.24838,10.81452 2.62804,16.80568 2.07499,32.74287 -0.79867,23.01494 -3.7024,35.35777 -12.89884,54.82902 -8.3328,17.64266 -16.66676,28.95995 -33.49824,45.48958 -20.70126,20.33002 -20.28966,15.72854 -6.32608,70.72221 6.27356,24.70757 11.3903,45.56839 11.37051,46.3574 -0.0198,0.789 -8.97057,3.73762 -19.89067,6.55247 -87.08745,22.44843 -380.56021,97.20817 -381.59513,97.20817 -0.71791,0 -1.56849,-0.78374 -1.89015,-1.74165 z"
             id="path14161"
             transform="scale(0.03)" />
          <path
             style="fill:#ffffff;stroke-width:1.39331"
             d="m 322.2898,-180.35814 c -7.31834,-3.32258 -13.04972,-11.10723 -18.37316,-24.95541 -4.34941,-11.31434 -13.17636,-40.61465 -12.44978,-41.32596 0.39005,-0.38185 37.43863,-9.95012 132.10055,-34.11666 18.00858,-4.59747 46.22319,-11.80507 62.69913,-16.01688 211.23747,-53.99954 207.31012,-53.01377 208.07283,-52.22651 2.02343,2.08857 8.35863,36.20151 8.94224,48.15086 0.58644,12.00774 0.27988,14.95766 -2.11765,20.37768 -4.5144,10.20556 -15.2308,16.37031 -43.51982,25.03535 -20.60792,6.31228 -267.24413,69.22106 -289.11263,73.74311 -23.27171,4.81222 -37.66657,5.22762 -46.24171,1.33442 z"
             id="path14200"
             transform="scale(0.03)" />
        </g>
        <path
           style="fill:#7fc37e;fill-opacity:1;stroke-width:0.0591132"
           d="m 53.056733,-70.566501 c -0.188367,-0.723399 -0.377058,-1.383245 -0.419314,-1.466323 -0.09119,-0.179286 -0.246822,-0.256362 -0.901901,-0.446659 -0.829066,-0.240839 -1.392043,-0.5719 -1.968989,-1.157874 -0.420266,-0.426842 -0.712659,-0.899504 -0.952261,-1.53936 -0.161176,-0.430418 -0.186015,-0.579885 -0.209528,-1.260813 -0.02289,-0.663008 -0.0086,-0.838495 0.101041,-1.238035 0.324065,-1.181226 1.130699,-2.182341 2.182,-2.708082 0.304044,-0.152046 0.589498,-0.27645 0.634342,-0.27645 0.04484,0 0.09334,0.05985 0.107762,0.133005 0.112093,0.568455 0.243003,1.052403 0.332318,1.228524 0.236448,0.466242 0.836909,0.510321 1.170728,0.08594 0.155989,-0.198309 0.164725,-0.496212 0.03031,-1.033674 -0.118798,-0.47502 -0.132807,-1.398345 -0.02781,-1.832511 0.327146,-1.352691 1.459746,-2.492922 2.785745,-2.804514 0.49173,-0.115551 1.282098,-0.115524 1.772502,0 0.684992,0.161445 1.208022,0.459609 1.742653,0.993438 0.554569,0.553734 0.817537,1.010193 1.069771,1.856898 0.181229,0.608358 0.336416,0.816084 0.654211,0.875703 0.375524,0.07045 0.768816,-0.202449 0.826087,-0.573204 0.02632,-0.17037 -0.09853,-0.745935 -0.301405,-1.389498 -0.03085,-0.09786 -0.0096,-0.132843 0.09841,-0.161757 0.258437,-0.0692 1.319138,-0.03697 1.694355,0.05149 2.157726,0.508674 3.582156,2.586306 3.26417,4.761024 -0.142392,0.973832 -0.504129,1.666283 -1.315262,2.517734 -0.490597,0.514982 -0.520184,0.560639 -0.518742,0.800513 8.4e-4,0.13991 0.145567,0.825666 0.321613,1.523902 0.176047,0.698236 0.313649,1.275954 0.305784,1.283819 -0.01579,0.01579 -1.411897,0.374121 -7.786824,1.998575 -2.359997,0.601374 -4.304039,1.093406 -4.320095,1.093406 -0.01606,0 -0.183311,-0.591872 -0.371677,-1.315271 z"
           id="path29024" />
        <path
           style="fill:#7fc37e;fill-opacity:1;stroke-width:0.0591132"
           d="m 54.692018,-65.798778 c -0.107075,-0.05513 -0.263133,-0.217048 -0.346797,-0.359809 -0.148622,-0.253604 -0.552119,-1.407957 -0.552119,-1.579542 0,-0.107378 -0.374714,-0.0013 3.546798,-1.004244 7.17894,-1.836079 8.529384,-2.170558 8.574833,-2.123821 0.0696,0.07157 0.292162,1.28303 0.292162,1.590307 0,0.543593 -0.247814,0.827194 -0.945812,1.082397 -0.426947,0.1561 -2.512011,0.707043 -6.293011,1.66282 -3.338579,0.843941 -3.878852,0.936414 -4.276054,0.731892 z"
           id="path29063" />
      </g>
    </g>
    <g
       id="g23355"
       transform="matrix(4.6609811,0,0,4.6609811,-569.55406,291.93096)">
      <g
         aria-label="Recipes"
         transform="matrix(0.03,0,0,0.03,-61.393406,-2.1098901)"
         id="text107252"
         style="font-size:400px;line-height:1.25;white-space:pre;shape-inside:url(#rect107254)">
        <path
           d="m 4425.0977,-2470.1732 v -281.25 h 122.6562 q 99.4141,0 99.4141,78.5156 0,78.9063 -103.9063,78.9063 h -67.5781 v 123.8281 z m 167.7734,0 -78.5156,-137.6953 h 56.4453 l 79.1015,137.6953 z m -117.1875,-163.8672 h 69.9219 q 24.414,0 37.5,-9.7656 13.2812,-9.961 13.2812,-28.711 0,-18.75 -13.4765,-28.9062 -13.2813,-10.1563 -37.8907,-10.1563 h -69.3359 z"
           style="font-weight:600;font-family:'Schibsted Grotesk';-inkscape-font-specification:'Schibsted Grotesk Semi-Bold';fill:#ffffff"
           id="path24032" />
        <path
           d="m 4778.418,-2465.2904 q -30.6641,0 -54.2969,-13.4766 -23.6328,-13.4765 -37.1094,-38.2812 -13.4765,-24.8047 -13.4765,-58.5938 0,-33.789 13.2812,-58.5937 13.2813,-24.8047 36.7188,-38.2813 23.4375,-13.4765 54.1015,-13.4765 17.1875,0 34.5703,5.2734 17.5782,5.2735 32.0313,18.75 14.6484,13.2813 23.6328,36.9141 8.9844,23.4375 8.9844,59.5703 h -172.2657 v -30.6641 h 129.2969 l -7.4219,11.1328 q -1.1718,-23.6328 -8.2031,-37.8906 -6.8359,-14.4531 -17.7734,-20.8984 -10.7422,-6.6406 -24.0235,-6.6406 -16.7968,0 -28.3203,9.1796 -11.5234,8.9844 -17.5781,25.9766 -5.8594,16.7969 -5.8594,39.8438 0,34.375 13.4766,53.9062 13.4766,19.3359 39.8437,19.3359 17.9688,0 30.6641,-9.1796 12.6953,-9.1797 18.9453,-27.3438 l 44.9219,12.5 q -7.6172,20.5078 -21.6797,33.9844 -14.0625,13.4765 -32.8125,20.3125 -18.75,6.6406 -39.6484,6.6406 z"
           style="font-weight:600;font-family:'Schibsted Grotesk';-inkscape-font-specification:'Schibsted Grotesk Semi-Bold';fill:#ffffff"
           id="path24034" />
        <path
           d="m 5016.3086,-2465.2904 q -32.0313,0 -55.2734,-13.4766 -23.2422,-13.4765 -35.9375,-38.2812 -12.5,-24.8047 -12.5,-58.5938 0,-33.9843 12.5,-58.789 12.6953,-24.8047 35.9375,-38.086 23.2421,-13.4765 55.0781,-13.4765 23.2422,0 42.7734,8.3984 19.5313,8.3985 33.2031,24.8047 13.6719,16.4063 19.1407,40.2344 l -46.875,10.5469 q -4.6875,-23.2422 -17.1875,-35.1563 -12.3047,-12.1094 -31.25,-12.1094 -25.7813,0 -38.8672,19.9219 -13.086,19.9219 -13.086,54.1016 0,34.1797 12.8907,53.7109 13.0859,19.5313 39.0625,19.5313 18.5547,0 31.0547,-11.1329 12.5,-11.1328 17.7734,-33.2031 l 45.7031,9.7656 q -4.2969,17.9688 -13.2812,31.4454 -8.9844,13.2812 -21.6797,22.2656 -12.5,8.789 -27.5391,13.0859 -15.039,4.4922 -31.6406,4.4922 z"
           style="font-weight:600;font-family:'Schibsted Grotesk';-inkscape-font-specification:'Schibsted Grotesk Semi-Bold';fill:#ffffff"
           id="path24036" />
        <path
           d="m 5152.832,-2470.1732 v -210.9375 h 48.2422 v 210.9375 z m 24.0235,-240.0391 q -15.0391,0 -24.6094,-9.5703 -9.5703,-9.5703 -9.5703,-24.6094 0,-15.2343 9.5703,-24.6093 9.5703,-9.5703 24.6094,-9.5703 15.2343,0 24.6093,9.5703 9.5704,9.375 9.5704,24.6093 0,15.0391 -9.5704,24.6094 -9.375,9.5703 -24.6093,9.5703 z"
           style="font-weight:600;font-family:'Schibsted Grotesk';-inkscape-font-specification:'Schibsted Grotesk Semi-Bold';fill:#ffffff"
           id="path24038" />
        <path
           d="m 5259.2773,-2394.0013 v -287.1094 h 45.7032 v 42.9687 l -0.7813,-3.125 q 9.961,-23.0468 28.9063,-33.789 18.9453,-10.9375 41.4062,-10.9375 26.3672,0 45.7031,13.2812 19.5313,13.2813 30.2735,38.086 10.7422,24.8047 10.7422,59.375 0,34.1797 -10.9375,58.9843 -10.7422,24.6094 -30.2735,37.8907 -19.5312,13.0859 -46.0937,13.0859 -22.2656,0 -41.4063,-10.5469 -18.9453,-10.7422 -29.8828,-35.1562 l 4.4922,-0.9766 v 117.9688 z m 98.4375,-108.7891 q 23.2422,0 37.5,-19.3359 14.2579,-19.336 14.2579,-54.2969 0,-34.1797 -13.8672,-53.125 -13.8672,-18.9453 -37.5,-18.9453 -14.4532,0 -26.5625,7.8125 -11.9141,7.6172 -18.9453,23.8281 -7.0313,16.0156 -7.0313,40.8203 0,36.7188 15.0391,55.0781 15.2343,18.1641 37.1093,18.1641 z"
           style="font-weight:600;font-family:'Schibsted Grotesk';-inkscape-font-specification:'Schibsted Grotesk Semi-Bold';fill:#ffffff"
           id="path24040" />
        <path
           d="m 5604.5898,-2465.2904 q -30.664,0 -54.2968,-13.4766 -23.6328,-13.4765 -37.1094,-38.2812 -13.4766,-24.8047 -13.4766,-58.5938 0,-33.789 13.2813,-58.5937 13.2812,-24.8047 36.7187,-38.2813 23.4375,-13.4765 54.1016,-13.4765 17.1875,0 34.5703,5.2734 17.5781,5.2735 32.0313,18.75 14.6484,13.2813 23.6328,36.9141 8.9843,23.4375 8.9843,59.5703 h -172.2656 v -30.6641 h 129.2969 l -7.4219,11.1328 q -1.1719,-23.6328 -8.2031,-37.8906 -6.8359,-14.4531 -17.7734,-20.8984 -10.7422,-6.6406 -24.0235,-6.6406 -16.7969,0 -28.3203,9.1796 -11.5234,8.9844 -17.5781,25.9766 -5.8594,16.7969 -5.8594,39.8438 0,34.375 13.4766,53.9062 13.4765,19.3359 39.8437,19.3359 17.9688,0 30.6641,-9.1796 12.6953,-9.1797 18.9453,-27.3438 l 44.9219,12.5 q -7.6172,20.5078 -21.6797,33.9844 -14.0625,13.4765 -32.8125,20.3125 -18.75,6.6406 -39.6485,6.6406 z"
           style="font-weight:600;font-family:'Schibsted Grotesk';-inkscape-font-specification:'Schibsted Grotesk Semi-Bold';fill:#ffffff"
           id="path24042" />
        <path
           d="m 5826.0742,-2465.2904 q -23.4375,0 -43.75,-7.0312 -20.1172,-7.2266 -33.789,-22.0704 -13.4766,-15.039 -17.5782,-38.4765 l 45.8985,-8.9844 q 1.9531,20.5078 14.2578,30.6641 12.5,10.1562 33.2031,10.1562 20.5078,0 31.25,-8.9844 10.9375,-8.9843 10.9375,-21.4843 0,-10.9375 -8.2031,-18.1641 -8.0078,-7.2266 -25.7813,-10.1562 l -21.6797,-3.711 q -10.9375,-1.9531 -23.0468,-5.0781 -12.1094,-3.3203 -22.8516,-9.375 -10.7422,-6.25 -17.5781,-16.7969 -6.6406,-10.7422 -6.6406,-27.1484 0,-20.8985 11.1328,-35.1563 11.1328,-14.2578 30.0781,-21.4843 19.1406,-7.4219 42.9687,-7.4219 23.2422,0 41.6016,7.0312 18.5547,6.836 30.6641,20.1172 12.3047,13.2813 16.0156,32.6172 l -46.4844,9.375 q -1.3672,-9.375 -5.664,-16.9922 -4.2969,-7.8125 -12.8907,-12.3047 -8.3984,-4.6875 -22.2656,-4.6875 -16.2109,0 -26.7578,6.6407 -10.5469,6.4453 -10.5469,18.5546 0,8.0079 4.6875,13.2813 4.8828,5.0781 13.6719,8.3984 8.7891,3.3203 20.7031,5.6641 l 23.4375,4.4922 q 16.6016,2.7344 31.25,9.5703 14.6485,6.6406 23.6328,18.75 9.1797,12.1094 9.1797,31.8359 0,21.875 -11.5234,37.3047 -11.5235,15.2344 -31.6406,23.2422 -20.1172,7.8125 -45.8985,7.8125 z"
           style="font-weight:600;font-family:'Schibsted Grotesk';-inkscape-font-specification:'Schibsted Grotesk Semi-Bold';fill:#ffffff"
           id="path24044" />
      </g>
      <g
         aria-label="Haven"
         transform="matrix(0.03,0,0,0.03,-61.365663,8.0325336)"
         id="text107252-0"
         style="font-size:400px;line-height:1.25;white-space:pre;shape-inside:url(#rect107254-9)">
        <path
           d="m 4423.3398,-2470.1732 v -281.25 h 60.3516 v 114.6484 h 125 v -114.6484 h 60.3516 v 281.25 h -60.3516 v -115.625 h -125 v 115.625 z"
           style="font-weight:bold;font-family:'Schibsted Grotesk';-inkscape-font-specification:'Schibsted Grotesk Bold';fill:#ffffff"
           id="path24047" />
        <path
           d="m 4784.082,-2465.0951 q -20.1172,0 -37.1093,-7.0312 -16.9922,-7.2266 -27.3438,-21.2891 -10.1562,-14.0625 -10.1562,-35.1562 0,-22.6563 13.0859,-38.4766 13.0859,-15.8203 38.0859,-24.0234 25,-8.3985 60.3516,-8.3985 h 29.6875 l -3.5156,5.2735 v -12.1094 q 0,-20.8985 -7.6172,-31.0547 -7.6172,-10.3516 -25.1953,-10.3516 -16.7969,0 -25.7813,8.9844 -8.789,8.7891 -10.7422,25.1953 l -59.375,-10.1562 q 3.3203,-17.5782 15.0391,-31.6407 11.9141,-14.2578 32.8125,-22.6562 20.8984,-8.3984 51.3672,-8.3984 27.9297,0 47.2656,8.9843 19.3359,8.7891 29.2969,28.711 10.1562,19.9218 10.1562,53.3203 v 71.6797 q 0,6.6406 1.7578,8.789 1.9532,2.1485 8.0079,2.1485 h 9.5703 v 42.5781 h -27.7344 q -22.8516,0 -34.7656,-11.3281 -11.7188,-11.5235 -11.7188,-33.0078 v -9.961 l 10.1563,3.9063 q -2.5391,8.3984 -7.4219,17.9687 -4.8828,9.5703 -13.6719,18.1641 -8.5937,8.3984 -21.875,13.8672 -13.2812,5.4687 -32.6172,5.4687 z m 16.7969,-39.8437 q 13.6719,0 24.2188,-6.25 10.5468,-6.25 16.6015,-18.75 6.0547,-12.6953 6.0547,-31.4453 v -4.4922 h -24.6094 q -20.8984,0 -32.6172,5.4687 -11.5234,5.4688 -16.2109,13.4766 -4.6875,7.8125 -4.6875,15.2344 0,5.8593 2.7344,12.1093 2.9297,6.25 9.5703,10.5469 6.8359,4.1016 18.9453,4.1016 z"
           style="font-weight:bold;font-family:'Schibsted Grotesk';-inkscape-font-specification:'Schibsted Grotesk Bold';fill:#ffffff"
           id="path24049" />
        <path
           d="m 5007.1289,-2470.1732 -79.8828,-210.9375 h 65.0391 l 52.1484,169.5312 h -5.2734 l 51.9531,-169.5312 h 64.8437 l -79.4922,210.9375 z"
           style="font-weight:bold;font-family:'Schibsted Grotesk';-inkscape-font-specification:'Schibsted Grotesk Bold';fill:#ffffff"
           id="path24051" />
        <path
           d="m 5277.6367,-2465.0951 q -31.0547,0 -55.8594,-13.4765 -24.6093,-13.4766 -39.0625,-38.2813 -14.2578,-25 -14.2578,-58.9844 0,-33.789 14.0625,-58.5937 14.2578,-24.8047 38.6719,-38.2813 24.6094,-13.4765 56.0547,-13.4765 17.3828,0 35.1562,5.2734 17.9688,5.2734 33.0079,18.75 15.039,13.2813 24.2187,37.3047 9.1797,23.8281 9.1797,60.9375 h -173.0469 v -33.2031 h 121.0938 l -6.0547,10.3515 q -1.5625,-21.0937 -7.8125,-33.9843 -6.25,-12.8907 -15.8203,-18.75 -9.5703,-5.8594 -21.4844,-5.8594 -15.4297,0 -25.7813,8.789 -10.3515,8.7891 -15.625,24.6094 -5.0781,15.625 -5.0781,36.3281 0,31.25 11.7188,49.4141 11.914,18.1641 36.3281,18.1641 15.8203,0 27.1484,-8.2032 11.5235,-8.2031 17.5782,-25 l 52.7343,13.4766 q -7.4218,21.875 -22.4609,35.7422 -15.0391,13.8672 -34.5703,20.5078 -19.336,6.4453 -40.0391,6.4453 z"
           style="font-weight:bold;font-family:'Schibsted Grotesk';-inkscape-font-specification:'Schibsted Grotesk Bold';fill:#ffffff"
           id="path24053" />
        <path
           d="m 5420.0195,-2470.1732 v -210.9375 h 56.25 v 48.6328 l -1.3672,-8.7891 q 9.5704,-20.8984 27.1485,-32.8125 17.5781,-12.1093 42.3828,-12.1093 24.6094,0 40.2344,11.1328 15.8203,11.1328 23.4375,30.8594 7.6172,19.7265 7.6172,45.5078 v 128.5156 h -58.2032 v -124.8047 q 0,-22.4609 -7.4218,-34.7656 -7.4219,-12.5 -25.7813,-12.5 -21.6797,0 -33.9844,18.5547 -12.1093,18.5547 -12.1093,56.8359 v 96.6797 z"
           style="font-weight:bold;font-family:'Schibsted Grotesk';-inkscape-font-specification:'Schibsted Grotesk Bold';fill:#ffffff"
           id="path24055" />
      </g>
    </g>
  </g>
</svg>
